<?xml version="1.0" encoding="UTF-8" standalone="no"?>
<!-- Created with Inkscape (http://www.inkscape.org/) -->

<svg
   xmlns:dc="http://purl.org/dc/elements/1.1/"
   xmlns:cc="http://creativecommons.org/ns#"
   xmlns:rdf="http://www.w3.org/1999/02/22-rdf-syntax-ns#"
   xmlns:svg="http://www.w3.org/2000/svg"
   xmlns="http://www.w3.org/2000/svg"
   xmlns:sodipodi="http://sodipodi.sourceforge.net/DTD/sodipodi-0.dtd"
   xmlns:inkscape="http://www.inkscape.org/namespaces/inkscape"
   width="210mm"
   height="297mm"
   viewBox="0 0 210 297"
   version="1.1"
   id="svg3841"
   inkscape:version="0.92.4 (33fec40, 2019-01-16)"
   sodipodi:docname="logo.svg">
  <defs
     id="defs3835" />
  <sodipodi:namedview
     id="base"
     pagecolor="#ffffff"
     bordercolor="#666666"
     borderopacity="1.0"
     inkscape:pageopacity="0.0"
     inkscape:pageshadow="2"
     inkscape:zoom="1.4250685"
     inkscape:cx="398.32167"
     inkscape:cy="334.06179"
     inkscape:document-units="mm"
     inkscape:current-layer="layer1"
     showgrid="false"
     inkscape:snap-text-baseline="true"
     inkscape:window-width="864"
     inkscape:window-height="601"
     inkscape:window-x="743"
     inkscape:window-y="289"
     inkscape:window-maximized="0" />
  <metadata
     id="metadata3838">
    <rdf:RDF>
      <cc:Work
         rdf:about="">
        <dc:format>image/svg+xml</dc:format>
        <dc:type
           rdf:resource="http://purl.org/dc/dcmitype/StillImage" />
        <dc:title></dc:title>
      </cc:Work>
    </rdf:RDF>
  </metadata>
  <g
     inkscape:label="Layer 1"
     inkscape:groupmode="layer"
     id="layer1">
    <rect
       style="fill:none;stroke:#000000;stroke-width:2.64583325"
       width="52.387501"
       height="31.220833"
       x="111.38958"
       y="106.76459"
       ry="2.6458333"
       id="rect3814" />
    <path
       inkscape:connector-curvature="0"
       d="m 118.00417,131.37083 v -17.99166 h 5.29166 l 5.29167,6.61458 5.29167,-6.61458 h 5.29166 v 17.99166 h -5.29166 v -10.31875 l -5.29167,6.61459 -5.29167,-6.61459 v 10.31875 z"
       id="path3816"
       style="stroke-width:0.26458332"
       sodipodi:nodetypes="ccccccccccccc" />
    <g
       id="layer1-3"
       transform="matrix(0.19826331,0,0,0.19826331,142.56811,-27.211809)"
       style="fill:#000000">
      <path
         inkscape:connector-curvature="0"
         id="path3765"
         style="color:#000000;text-indent:0;text-transform:none;fill:#000000"
         d="m 50.504646,709.50189 c -3.2721,0.13655 -6.3717,1.3849 -8.0938,4.125 l -3.9062,6.2188 c -0.028,0.0433 -0.066,0.0809 -0.094,0.125 l -26.406,42.031 -0.3438,0.5625 -0.031,0.6875 -1.625,31.656 -0.2188,4.5938 4,-2.1875 27.844,-15.219 0.5938,-0.3125 0.375,-0.5625 30.406,-48.375 c 1.9681,-3.1315 1.4088,-6.9968 -0.4062,-10.312 -1.8151,-3.3157 -4.9277,-6.4256 -8.875,-8.9062 -3.9473,-2.4807 -8.0378,-3.8964 -11.813,-4.0938 -0.4718,-0.0247 -0.9388,-0.0508 -1.4062,-0.0312 z m 0.1875,5.125 c 0.2943,-0.008 0.609,0.0141 0.9375,0.0312 2.628,0.13737 6.0557,1.2577 9.375,3.3438 3.3193,2.086 5.7989,4.6604 7.0625,6.9688 1.0669,1.949 1.2465,3.4504 0.8437,4.5625 -0.107,-0.21996 -0.1945,-0.44073 -0.3124,-0.65625 -1.8151,-3.3157 -4.8966,-6.4256 -8.8438,-8.9062 -3.9473,-2.4807 -8.069,-3.8964 -11.844,-4.0938 -0.2412,-0.0126 -0.4781,-0.03 -0.7187,-0.0312 0.7056,-0.70485 1.8281,-1.172 3.5,-1.2188 z m -4,6.375 c 0.2943,-0.008 0.609,-0.0172 0.9375,0 2.6281,0.13737 6.0557,1.2577 9.375,3.3438 3.3193,2.086 5.7988,4.6916 7.0625,7 1.2209,2.2304 1.3062,3.8524 0.6563,5 l -2.1563,3.4688 c -0.1602,-0.35851 -0.3397,-0.71259 -0.5313,-1.0625 -1.7489,-3.1948 -4.7532,-6.2229 -8.625,-8.6562 -3.8719,-2.4333 -7.9253,-3.8411 -11.562,-4.0312 -0.4018,-0.021 -0.7918,-0.0116 -1.1876,0 l 2.0938,-3.3438 h 0.031 l 0.063,-0.125 c 0.6569,-0.93513 1.8731,-1.5386 3.8437,-1.5938 z m -6.0313,8.9375 c 0.3151,-0.01 0.6543,0.0132 1,0.0312 2.6059,0.13624 5.8533,1.1596 9.0626,3.0625 l -18.281,29.094 c -4.7667,2.838 -9.249,2.4918 -13.406,1.5938 l -1.7812,-0.375 20.562,-32.781 c 0.7499,-0.36846 1.6971,-0.59035 2.8437,-0.625 z m 11.719,4.1562 c 2.87,2.0002 5.0303,4.3603 6.2188,6.5312 0.7782,1.4219 1.1403,2.6472 1.125,3.7188 l -20.5,32.562 -0.7188,-0.96875 c -2.6124,-3.3564 -4.8647,-7.2241 -4.375,-12.75 l 18.25,-29.094 z m -20.094,30.125 c -0.143,6.0398 2.7835,10.362 5.5938,13.812 l 0.1562,0.1875 -17.812,9.7188 c -0.8799,-1.7025 -2.3489,-2.6153 -4.5626,-2.8438 l 1.0313,-20.125 0.7187,0.1875 c 4.3249,1.035 9.4988,1.8045 14.875,-0.9375 z" />
    </g>
    <rect
       style="fill:none;stroke:#000000;stroke-width:2.53380632"
       width="47.873379"
       height="31.332859"
       x="112.69707"
       y="145.34731"
       ry="2.6553271"
       id="rect3814-6" />
    <path
       inkscape:connector-curvature="0"
       d="m 119.36767,170.00981 v -17.99166 h 5.29166 l 5.29167,6.61458 5.29167,-6.61458 h 5.29166 v 17.99166 h -5.29166 v -10.31875 l -5.29167,6.61459 -5.29167,-6.61459 v 10.31875 z"
       id="path3816-7"
       style="stroke-width:0.26458332"
       sodipodi:nodetypes="ccccccccccccc" />
    <g
       id="layer1-3-5"
       transform="matrix(0.24628321,0,0,0.24628321,143.545,-24.108789)"
       style="fill:#000000">
      <path
         inkscape:connector-curvature="0"
         id="path3765-3"
         style="color:#000000;text-indent:0;text-transform:none;fill:#000000"
         d="m 11.855758,703.89957 c -2.6951665,1.86047 -4.651504,4.56947 -4.647038,7.80578 l 0.01199,7.34383 c -5.95e-4,0.0516 -0.01269,0.10363 -0.01286,0.15587 l 0.07669,49.63744 0.0091,0.65918 0.3404085,0.59812 15.5070025,27.64554 2.264711,4.00274 2.217185,-3.98362 15.438189,-27.72307 0.335665,-0.58102 0.01725,-0.67582 -0.0761,-57.1372 c -0.0051,-3.69861 -2.539529,-6.67014 -5.842847,-8.50668 -3.303669,-1.8369 -7.595191,-2.80778 -12.257219,-2.80117 -4.662082,0.007 -8.877354,0.99032 -12.176203,2.83659 -0.412284,0.23071 -0.821255,0.45768 -1.206193,0.72351 z m 2.891695,4.23543 c 0.244693,-0.16371 0.522695,-0.31284 0.809704,-0.47356 2.296377,-1.28526 5.793447,-2.16547 9.713847,-2.1709 3.920346,-0.006 7.390817,0.84994 9.690775,2.12884 1.9419,1.07977 2.894504,2.25408 3.146826,3.40965 -0.207816,-0.12901 -0.399569,-0.2691 -0.614238,-0.38855 -3.30367,-1.8369 -7.568883,-2.82436 -12.230826,-2.81781 -4.662082,0.007 -8.903748,1.00696 -12.202427,2.85312 -0.210759,0.11797 -0.42044,0.22959 -0.624612,0.35688 0.221007,-0.97254 0.921446,-1.96633 2.310809,-2.89752 z m 0.01594,7.52598 c 0.244693,-0.16371 0.506003,-0.33932 0.793065,-0.49995 2.296462,-1.28532 5.793447,-2.16548 9.713847,-2.1709 3.920346,-0.006 7.407371,0.87638 9.707414,2.15523 2.22224,1.23569 3.159386,2.56231 3.221609,3.87969 l 0.02576,4.0843 c -0.326707,-0.21784 -0.667378,-0.42165 -1.016061,-0.61547 -3.183194,-1.76994 -7.339478,-2.72937 -11.912414,-2.72302 -4.573021,0.006 -8.752695,0.97712 -11.930488,2.7557 -0.351097,0.19651 -0.675999,0.41244 -1.004634,0.63333 l -0.01197,-3.94523 0.02622,-0.0165 -0.01337,-0.13934 c 0.05701,-1.14137 0.764012,-2.30045 2.401576,-3.39803 z m -0.335865,10.77695 c 0.261221,-0.17649 0.560535,-0.33776 0.862574,-0.50689 2.27708,-1.27443 5.569914,-2.14052 9.299564,-2.24226 l 0.05082,34.36063 c -2.518862,4.94278 -6.495224,7.04025 -10.49067,8.49747 l -1.706763,0.63266 -0.08746,-38.69603 c 0.437874,-0.7116 1.120814,-1.40443 2.072286,-2.04521 z m 12.129961,-2.73368 c 3.494511,0.16152 6.580592,1.00596 8.743694,2.20859 1.416584,0.78784 2.376331,1.63126 2.934855,2.54592 l 0.02312,38.4777 -1.124678,-0.43617 c -3.999839,-1.44615 -7.967725,-3.51686 -10.500346,-8.45257 l -0.07704,-34.3441 z m -0.933049,36.19964 c 3.099962,5.18555 7.880556,7.2812 12.097721,8.70099 l 0.232126,0.0753 -9.884929,17.72034 c -1.652256,-0.97097 -3.381718,-0.95974 -5.376222,0.0275 l -9.859934,-17.57444 0.707965,-0.22465 c 4.210539,-1.43086 8.997689,-3.53907 12.083345,-8.72567 z" />
    </g>
    <text
       xml:space="preserve"
       style="font-style:normal;font-weight:normal;font-size:10.58333302px;line-height:1.25;font-family:sans-serif;letter-spacing:0px;word-spacing:0px;fill:#000000;fill-opacity:1;stroke:none;stroke-width:0.26458332"
       x="110.54064"
       y="238.4371"
       id="text3920"><tspan
         sodipodi:role="line"
         id="tspan3918"
         x="110.54064"
         y="238.4371"
         style="font-size:3.17499995px;stroke-width:0.26458332">sources:</tspan><tspan
         sodipodi:role="line"
         x="110.54064"
         y="251.66628"
         style="font-size:3.17499995px;stroke-width:0.26458332"
         id="tspan3922">openclipart pencil logo public domain https://publicdomainvectors.org/en/free-clipart/Pencil-outline/44290.html</tspan><tspan
         sodipodi:role="line"
         x="110.54064"
         y="264.89545"
         style="font-size:3.17499995px;stroke-width:0.26458332"
         id="tspan3924">github markdown logo public domain https://github.com/dcurtis/markdown-mark/blob/master/svg/markdown-mark.svg </tspan></text>
    <rect
       style="fill:none;stroke:#000000;stroke-width:2.64583325"
       width="52.387501"
       height="31.220833"
       x="37.872833"
       y="181.61375"
       ry="2.6458333"
       id="rect3814-62" />
    <path
       inkscape:connector-curvature="0"
       d="m 44.487415,206.22001 v -17.99167 h 5.291667 l 5.291666,6.61459 5.291667,-6.61459 h 5.291667 v 17.99167 h -5.291667 v -10.31875 l -5.291667,6.61458 -5.291666,-6.61458 v 10.31875 z m 33.072917,0 -7.9375,-8.73125 h 5.291666 v -9.26042 h 5.291667 v 9.26042 h 5.291667 z"
       id="path3816-9"
       style="stroke-width:0.26458332" />
    <g
       id="layer1-1"
       transform="matrix(0.26458333,0,0,0.26458333,94.088469,78.303258)">
      <path
         inkscape:connector-curvature="0"
         id="path3765-2"
         style="color:#000000;text-indent:0;text-transform:none;fill:#231f20"
         d="m -74.367,544.51 c -3.2721,0.13655 -6.3717,1.3849 -8.0938,4.125 l -3.9062,6.2188 c -0.028,0.0433 -0.066,0.0809 -0.094,0.125 l -26.406,42.031 -0.3438,0.5625 -0.031,0.6875 -1.625,31.656 -0.2188,4.5938 4,-2.1875 27.844,-15.219 0.5938,-0.3125 0.375,-0.5625 30.406,-48.375 c 1.9681,-3.1315 1.4088,-6.9968 -0.4062,-10.312 -1.8151,-3.3157 -4.9277,-6.4256 -8.875,-8.9062 -3.9473,-2.4807 -8.0378,-3.8964 -11.813,-4.0938 -0.4718,-0.0247 -0.9388,-0.0508 -1.4062,-0.0312 z m 0.1875,5.125 c 0.2943,-0.008 0.609,0.0141 0.9375,0.0312 2.628,0.13737 6.0557,1.2577 9.375,3.3438 3.3193,2.086 5.7989,4.6604 7.0625,6.9688 1.0669,1.949 1.2465,3.4504 0.8437,4.5625 -0.107,-0.21996 -0.1945,-0.44073 -0.3124,-0.65625 -1.8151,-3.3157 -4.8966,-6.4256 -8.8438,-8.9062 -3.9473,-2.4807 -8.069,-3.8964 -11.844,-4.0938 -0.2412,-0.0126 -0.4781,-0.03 -0.7187,-0.0312 0.7056,-0.70485 1.8281,-1.172 3.5,-1.2188 z m -4,6.375 c 0.2943,-0.008 0.609,-0.0172 0.9375,0 2.6281,0.13737 6.0557,1.2577 9.375,3.3438 3.3193,2.086 5.7988,4.6916 7.0625,7 1.2209,2.2304 1.3062,3.8524 0.6563,5 l -2.1563,3.4688 c -0.1602,-0.35851 -0.3397,-0.71259 -0.5313,-1.0625 -1.7489,-3.1948 -4.7532,-6.2229 -8.625,-8.6562 -3.8719,-2.4333 -7.9253,-3.8411 -11.562,-4.0312 -0.4018,-0.021 -0.7918,-0.0116 -1.1876,0 l 2.0938,-3.3438 h 0.031 l 0.063,-0.125 c 0.6569,-0.93513 1.8731,-1.5386 3.8437,-1.5938 z m -6.0313,8.9375 c 0.3151,-0.01 0.6543,0.0132 1,0.0312 2.6059,0.13624 5.8533,1.1596 9.0626,3.0625 l -18.281,29.094 c -4.7667,2.838 -9.249,2.4918 -13.406,1.5938 l -1.7812,-0.375 20.562,-32.781 c 0.7499,-0.36846 1.6971,-0.59035 2.8437,-0.625 z m 11.719,4.1562 c 2.87,2.0002 5.0303,4.3603 6.2188,6.5312 0.7782,1.4219 1.1403,2.6472 1.125,3.7188 l -20.5,32.562 -0.7188,-0.96875 c -2.6124,-3.3564 -4.8647,-7.2241 -4.375,-12.75 l 18.25,-29.094 z m -20.094,30.125 c -0.143,6.0398 2.7835,10.362 5.5938,13.812 l 0.1562,0.1875 -17.812,9.7188 c -0.8799,-1.7025 -2.3489,-2.6153 -4.5626,-2.8438 l 1.0313,-20.125 0.7187,0.1875 c 4.3249,1.035 9.4988,1.8045 14.875,-0.9375 z" />
    </g>
    <rect
       style="fill:none;stroke:#000000;stroke-width:3.0637157"
       width="51.96962"
       height="42.198269"
       x="111.95547"
       y="182.14964"
       ry="3.5761242"
       id="rect3814-62-7"
       inkscape:export-xdpi="96"
       inkscape:export-ydpi="96" />
    <path
       inkscape:connector-curvature="0"
       d="m 118.36115,206.54713 v -17.99167 h 5.29167 l 5.29167,6.61459 5.29167,-6.61459 h 5.29167 v 17.99167 h -5.29167 v -10.31875 l -5.29167,6.61458 -5.29167,-6.61458 v 10.31875 z m 33.07294,0 -7.9375,-8.73125 h 5.29166 v -9.26042 h 5.29167 v 9.26042 h 5.29167 z"
       id="path3816-9-0"
       style="stroke-width:0.26458332"
       inkscape:export-xdpi="96"
       inkscape:export-ydpi="96" />
    <g
       id="layer1-3-5-9"
       transform="matrix(-0.00118585,0.24628036,-0.24628036,-0.00118585,332.56053,206.44279)"
       style="fill:#000000"
       inkscape:export-xdpi="96"
       inkscape:export-ydpi="96">
      <path
         inkscape:connector-curvature="0"
         id="path3765-3-3"
         style="color:#000000;text-indent:0;text-transform:none;fill:#000000"
         d="m 18.322204,708.16569 c -2.695166,1.86047 -4.651503,4.56947 -4.647037,7.80578 l 0.01199,7.34383 c -5.95e-4,0.0516 -0.01269,0.10363 -0.01286,0.15587 l 0.387056,114.095 0.0091,0.65918 0.340408,0.59812 15.507002,27.64554 2.264711,4.00274 2.217185,-3.98362 15.438189,-27.72307 0.335665,-0.58102 0.01725,-0.67582 -0.386466,-121.59476 c -0.0051,-3.69861 -2.539529,-6.67014 -5.842847,-8.50668 -3.303669,-1.8369 -7.595191,-2.80778 -12.257219,-2.80117 -4.662082,0.007 -8.877354,0.99032 -12.176203,2.83659 -0.412284,0.23071 -0.821255,0.45768 -1.206193,0.72351 z m 2.891695,4.23543 c 0.244693,-0.16371 0.522695,-0.31284 0.809704,-0.47356 2.296377,-1.28526 5.793447,-2.16547 9.713847,-2.1709 3.920346,-0.006 7.390817,0.84994 9.690775,2.12884 1.9419,1.07977 2.894504,2.25408 3.146826,3.40965 -0.207816,-0.12901 -0.399569,-0.2691 -0.614238,-0.38855 -3.30367,-1.8369 -7.568883,-2.82436 -12.230826,-2.81781 -4.662082,0.007 -8.903748,1.00696 -12.202427,2.85312 -0.210759,0.11797 -0.42044,0.22959 -0.624612,0.35688 0.221007,-0.97254 0.921446,-1.96633 2.310809,-2.89752 z m 0.01594,7.52598 c 0.244693,-0.16371 0.506003,-0.33932 0.793065,-0.49995 2.296462,-1.28532 5.793447,-2.16548 9.713847,-2.1709 3.920346,-0.006 7.407371,0.87638 9.707414,2.15523 2.22224,1.23569 3.159386,2.56231 3.221609,3.87969 l 0.02576,4.0843 c -0.326707,-0.21784 -0.667378,-0.42165 -1.016061,-0.61547 -3.183194,-1.76994 -7.339478,-2.72937 -11.912414,-2.72302 -4.573021,0.006 -8.752695,0.97712 -11.930488,2.7557 -0.351097,0.19651 -0.675999,0.41244 -1.004634,0.63333 l -0.01197,-3.94523 0.02622,-0.0165 -0.01337,-0.13934 c 0.05701,-1.14137 0.764012,-2.30045 2.401576,-3.39803 z m -0.335865,10.77695 c 0.261221,-0.17649 0.560535,-0.33776 0.862574,-0.50689 2.27708,-1.27443 5.569914,-2.14052 9.299564,-2.24226 l 0.361186,98.81819 c -2.518862,4.94278 -6.495224,7.04025 -10.49067,8.49747 l -1.706763,0.63266 -0.397826,-103.15359 c 0.437874,-0.7116 1.120814,-1.40443 2.072286,-2.04521 z m 12.129961,-2.73368 c 3.494511,0.16152 6.580592,1.00596 8.743694,2.20859 1.416584,0.78784 2.376331,1.63126 2.934855,2.54592 l 0.333486,102.93526 -1.124678,-0.43617 c -3.999839,-1.44615 -7.967725,-3.51686 -10.500346,-8.45257 L 33.02354,727.96974 Z m -0.622683,100.6572 c 3.099962,5.18555 7.880556,7.2812 12.097721,8.70099 l 0.232126,0.0753 -9.884929,17.72034 c -1.652256,-0.97097 -3.381718,-0.95974 -5.376222,0.0275 l -9.859934,-17.57444 0.707965,-0.22465 c 4.210539,-1.43086 8.997689,-3.53907 12.083345,-8.72567 z"
         sodipodi:nodetypes="ccccccccccccccccccccccccccccccccccccccccccccccccccccccccccccccccccccccc" />
    </g>
  </g>
</svg>
