<svg class="bob" font-family="arial" font-size="14" height="112" width="400" xmlns="http://www.w3.org/2000/svg">
<defs>
<marker id="triangle" markerHeight="8" markerWidth="8" orient="auto" refX="4" refY="2" viewBox="0 0 8 4">
<polygon class="fg_fill" points="0,0 0,4 8,2 0,0"/>
</marker>
<marker id="clear_triangle" markerHeight="10" markerWidth="10" orient="auto" refX="1" refY="7" viewBox="0 0 20 14">
<polygon class="bg_fill" points="2,2 2,12 18,7 2,2"/>
</marker>
<marker id="circle" markerHeight="5" markerWidth="5" orient="auto" refX="10" refY="10" viewBox="0 0 20 20">
<circle class="fg_fill" cx="10" cy="10" r="8"/>
</marker>
<marker id="square" markerHeight="5" markerWidth="5" orient="auto" refX="10" refY="10" viewBox="0 0 20 20">
<rect class="fg_fill" height="20" width="20" x="0" y="0"/>
</marker>
<marker id="open_circle" markerHeight="10" markerWidth="10" orient="auto" refX="10" refY="10" viewBox="0 0 20 20">
<circle class="bg_fill" cx="10" cy="10" r="4"/>
</marker>
<marker id="big_open_circle" markerHeight="20" markerWidth="20" orient="auto" refX="20" refY="20" viewBox="0 0 40 40">
<circle class="bg_fill" cx="20" cy="20" r="6"/>
</marker>
</defs>
<style type="text/css">

rect.backdrop {
    fill: white;
}
text{
    fill: black;
}

circle {
    fill: none;
    stroke: black;
    stroke-width: 2;
}

line {
    stroke: black;
    stroke-width: 2;
    stroke-opacity: 1;
    fill-opacity: 1;
    stroke-linecap: round;
    stroke-linejoin: miter;
}

path {
    fill: none;
    stroke: black;
    stroke-width: 2;
    stroke-opacity: 1;
    fill-opacity: 1;
    stroke-linecap: round;
    stroke-linejoin: miter;
}

line.dashed {
    stroke-dasharray: 5;
}

.fg_fill {
    fill: black;
}


.bg_fill {
    fill: white;
    stroke: black;
    stroke-width: 2;
}

tspan.head{
    fill: none;
    stroke: none;
}
    
</style>
<rect class="backdrop" height="112" width="400" x="0" y="0"/>
<g>
<line x1="16" x2="24" y1="48" y2="32"/>
<line x1="16" x2="24" y1="48" y2="64"/>
<line x1="16" x2="24" y1="80" y2="64"/>
<line x1="16" x2="24" y1="80" y2="96"/>
<line x1="24" x2="48" y1="32" y2="32"/>
<line x1="24" x2="48" y1="64" y2="64"/>
<line x1="24" x2="48" y1="96" y2="96"/>
<line x1="48" x2="56" y1="32" y2="16"/>
<line x1="48" x2="56" y1="32" y2="48"/>
<line x1="48" x2="56" y1="64" y2="48"/>
<line x1="48" x2="56" y1="64" y2="80"/>
<line x1="48" x2="56" y1="96" y2="80"/>
<line x1="48" x2="56" y1="96" y2="112"/>
<line x1="56" x2="80" y1="16" y2="16"/>
<line x1="56" x2="80" y1="48" y2="48"/>
<line x1="56" x2="80" y1="80" y2="80"/>
<line x1="56" x2="80" y1="112" y2="112"/>
<line x1="80" x2="88" y1="16" y2="32"/>
<line x1="80" x2="88" y1="48" y2="32"/>
<line x1="80" x2="88" y1="48" y2="64"/>
<line x1="80" x2="88" y1="80" y2="64"/>
<line x1="80" x2="88" y1="80" y2="96"/>
<line x1="80" x2="88" y1="112" y2="96"/>
<line x1="88" x2="112" y1="32" y2="32"/>
<line x1="88" x2="112" y1="64" y2="64"/>
<line x1="88" x2="112" y1="96" y2="96"/>
<line x1="112" x2="120" y1="32" y2="16"/>
<line x1="112" x2="120" y1="32" y2="48"/>
<line x1="112" x2="120" y1="64" y2="48"/>
<line x1="112" x2="120" y1="64" y2="80"/>
<line x1="112" x2="120" y1="96" y2="80"/>
<line x1="112" x2="120" y1="96" y2="112"/>
<line x1="120" x2="144" y1="16" y2="16"/>
<line x1="120" x2="144" y1="48" y2="48"/>
<line x1="120" x2="144" y1="80" y2="80"/>
<line x1="120" x2="144" y1="112" y2="112"/>
<line x1="144" x2="152" y1="16" y2="32"/>
<line x1="144" x2="152" y1="48" y2="32"/>
<line x1="144" x2="152" y1="48" y2="64"/>
<line x1="144" x2="152" y1="80" y2="64"/>
<line x1="144" x2="152" y1="80" y2="96"/>
<line x1="144" x2="152" y1="112" y2="96"/>
</g>
<g>
<line x1="256" x2="300" y1="40" y2="40"/>
<line x1="300" x2="300" y1="40" y2="56"/>
<line x1="300" x2="300" y1="56" y2="72"/>
<line marker-end="url(#triangle)" x1="300" x2="340" y1="56" y2="56"/>
</g>
<g>
<line x1="264" x2="300" y1="72" y2="72"/>
</g>
<g>
<text x="209" y="44">
Apple
</text>
</g>
<g>
<text x="209" y="76">
Banana
</text>
</g>
<g>
<text x="353" y="60">
Orange
</text>
</g>
</svg>
