<?xml version="1.0" encoding="UTF-8" standalone="no"?>
<!DOCTYPE svg PUBLIC "-//W3C//DTD SVG 1.1//EN"
 "http://www.w3.org/Graphics/SVG/1.1/DTD/svg11.dtd">
<!-- Generated by graphviz version 12.2.0 (20241103.1931)
 -->
<!-- Pages: 1 -->
<svg width="134pt" height="190pt"
 viewBox="0.00 0.00 134.00 190.31" xmlns="http://www.w3.org/2000/svg" xmlns:xlink="http://www.w3.org/1999/xlink">
<g id="graph0" class="graph" transform="scale(1 1) rotate(0) translate(4 186.31)">
<polygon fill="white" stroke="none" points="-4,4 -4,-186.31 130,-186.31 130,4 -4,4"/>
<!-- a -->
<g id="node1" class="node">
<title>a</title>
<ellipse fill="none" stroke="black" cx="63" cy="-163.92" rx="27" ry="18.38"/>
<text text-anchor="middle" x="63" y="-159.62" font-family="Times,serif" font-size="14.00">a</text>
</g>
<!-- b -->
<g id="node2" class="node">
<title>b</title>
<ellipse fill="none" stroke="black" cx="63" cy="-91.15" rx="27" ry="18.38"/>
<text text-anchor="middle" x="63" y="-86.85" font-family="Times,serif" font-size="14.00">b</text>
</g>
<!-- a&#45;&gt;b -->
<g id="edge1" class="edge">
<title>a&#45;&gt;b</title>
<path fill="none" stroke="black" d="M63,-145.07C63,-137.8 63,-129.22 63,-121.11"/>
<polygon fill="black" stroke="black" points="66.5,-121.28 63,-111.28 59.5,-121.28 66.5,-121.28"/>
</g>
<!-- c -->
<g id="node3" class="node">
<title>c</title>
<ellipse fill="none" stroke="black" cx="27" cy="-18.38" rx="27" ry="18.38"/>
<text text-anchor="middle" x="27" y="-14.08" font-family="Times,serif" font-size="14.00">c</text>
</g>
<!-- b&#45;&gt;c -->
<g id="edge2" class="edge">
<title>b&#45;&gt;c</title>
<path fill="none" stroke="black" d="M54.47,-73.38C50.34,-65.27 45.29,-55.34 40.65,-46.22"/>
<polygon fill="black" stroke="black" points="43.81,-44.71 36.16,-37.38 37.57,-47.88 43.81,-44.71"/>
</g>
<!-- d -->
<g id="node4" class="node">
<title>d</title>
<ellipse fill="none" stroke="black" cx="99" cy="-18.38" rx="27" ry="18.38"/>
<text text-anchor="middle" x="99" y="-14.08" font-family="Times,serif" font-size="14.00">d</text>
</g>
<!-- b&#45;&gt;d -->
<g id="edge3" class="edge">
<title>b&#45;&gt;d</title>
<path fill="none" stroke="black" d="M71.53,-73.38C75.66,-65.27 80.71,-55.34 85.35,-46.22"/>
<polygon fill="black" stroke="black" points="88.43,-47.88 89.84,-37.38 82.19,-44.71 88.43,-47.88"/>
</g>
</g>
</svg>
