<svg class="bob" font-family="arial" font-size="14" height="384" width="728" xmlns="http://www.w3.org/2000/svg">
<defs>
<marker id="triangle" markerHeight="8" markerWidth="8" orient="auto" refX="4" refY="2" viewBox="0 0 8 4">
<polygon class="fg_fill" points="0,0 0,4 8,2 0,0"/>
</marker>
<marker id="clear_triangle" markerHeight="10" markerWidth="10" orient="auto" refX="1" refY="7" viewBox="0 0 20 14">
<polygon class="bg_fill" points="2,2 2,12 18,7 2,2"/>
</marker>
<marker id="circle" markerHeight="5" markerWidth="5" orient="auto" refX="10" refY="10" viewBox="0 0 20 20">
<circle class="fg_fill" cx="10" cy="10" r="8"/>
</marker>
<marker id="square" markerHeight="5" markerWidth="5" orient="auto" refX="10" refY="10" viewBox="0 0 20 20">
<rect class="fg_fill" height="20" width="20" x="0" y="0"/>
</marker>
<marker id="open_circle" markerHeight="10" markerWidth="10" orient="auto" refX="10" refY="10" viewBox="0 0 20 20">
<circle class="bg_fill" cx="10" cy="10" r="4"/>
</marker>
<marker id="big_open_circle" markerHeight="20" markerWidth="20" orient="auto" refX="20" refY="20" viewBox="0 0 40 40">
<circle class="bg_fill" cx="20" cy="20" r="6"/>
</marker>
</defs>
<style type="text/css">

rect.backdrop {
    fill: white;
}
text{
    fill: black;
}

circle {
    fill: none;
    stroke: black;
    stroke-width: 2;
}

line {
    stroke: black;
    stroke-width: 2;
    stroke-opacity: 1;
    fill-opacity: 1;
    stroke-linecap: round;
    stroke-linejoin: miter;
}

path {
    fill: none;
    stroke: black;
    stroke-width: 2;
    stroke-opacity: 1;
    fill-opacity: 1;
    stroke-linecap: round;
    stroke-linejoin: miter;
}

line.dashed {
    stroke-dasharray: 5;
}

.fg_fill {
    fill: black;
}


.bg_fill {
    fill: white;
    stroke: black;
    stroke-width: 2;
}

tspan.head{
    fill: none;
    stroke: none;
}
    
</style>
<rect class="backdrop" height="384" width="728" x="0" y="0"/>
<g>
<line x1="16" x2="24" y1="304" y2="288"/>
<line x1="16" x2="24" y1="304" y2="320"/>
<line x1="16" x2="24" y1="336" y2="320"/>
<line x1="16" x2="24" y1="336" y2="352"/>
<line x1="24" x2="48" y1="288" y2="288"/>
<line x1="24" x2="48" y1="320" y2="320"/>
<line x1="24" x2="48" y1="352" y2="352"/>
<line x1="48" x2="56" y1="288" y2="272"/>
<line x1="48" x2="56" y1="288" y2="304"/>
<line x1="48" x2="56" y1="320" y2="304"/>
<line x1="48" x2="56" y1="320" y2="336"/>
<line x1="48" x2="56" y1="352" y2="336"/>
<line x1="48" x2="56" y1="352" y2="368"/>
<line x1="56" x2="80" y1="272" y2="272"/>
<line x1="56" x2="80" y1="304" y2="304"/>
<line x1="56" x2="80" y1="336" y2="336"/>
<line x1="56" x2="80" y1="368" y2="368"/>
<line x1="80" x2="88" y1="272" y2="288"/>
<line x1="80" x2="88" y1="304" y2="288"/>
<line x1="80" x2="88" y1="304" y2="320"/>
<line x1="80" x2="88" y1="336" y2="320"/>
<line x1="80" x2="88" y1="336" y2="352"/>
<line x1="80" x2="88" y1="368" y2="352"/>
<line x1="88" x2="112" y1="288" y2="288"/>
<line x1="88" x2="112" y1="320" y2="320"/>
<line x1="88" x2="112" y1="352" y2="352"/>
<line x1="112" x2="120" y1="288" y2="272"/>
<line x1="112" x2="120" y1="288" y2="304"/>
<line x1="112" x2="120" y1="320" y2="304"/>
<line x1="112" x2="120" y1="320" y2="336"/>
<line x1="112" x2="120" y1="352" y2="336"/>
<line x1="112" x2="120" y1="352" y2="368"/>
<line x1="120" x2="144" y1="272" y2="272"/>
<line x1="120" x2="144" y1="304" y2="304"/>
<line x1="120" x2="144" y1="336" y2="336"/>
<line x1="120" x2="144" y1="368" y2="368"/>
<line x1="144" x2="152" y1="272" y2="288"/>
<line x1="144" x2="152" y1="304" y2="288"/>
<line x1="144" x2="152" y1="304" y2="320"/>
<line x1="144" x2="152" y1="336" y2="320"/>
<line x1="144" x2="152" y1="336" y2="352"/>
<line x1="144" x2="152" y1="368" y2="352"/>
</g>
<g>
<line x1="20" x2="36" y1="40" y2="72"/>
<line x1="34" x2="20" y1="12" y2="40"/>
<line x1="36" x2="20" y1="72" y2="104"/>
<line x1="36" x2="76" y1="72" y2="72"/>
<line x1="76" x2="92" y1="72" y2="104"/>
<line x1="92" x2="76" y1="40" y2="72"/>
<line x1="92" x2="132" y1="40" y2="40"/>
<line x1="92" x2="76" y1="104" y2="136"/>
<line x1="92" x2="132" y1="104" y2="104"/>
<line x1="132" x2="148" y1="40" y2="72"/>
<line x1="132" x2="148" y1="104" y2="136"/>
<line x1="146" x2="132" y1="12" y2="40"/>
<line x1="148" x2="132" y1="72" y2="104"/>
<line x1="148" x2="188" y1="72" y2="72"/>
<line x1="148" x2="134" y1="136" y2="164"/>
<line x1="148" x2="188" y1="136" y2="136"/>
<line x1="188" x2="204" y1="72" y2="104"/>
<line x1="188" x2="202" y1="136" y2="164"/>
<line x1="204" x2="188" y1="40" y2="72"/>
<line x1="204" x2="240" y1="40" y2="40"/>
<line x1="204" x2="188" y1="104" y2="136"/>
<line x1="204" x2="244" y1="104" y2="104"/>
<line x1="244" x2="260" y1="104" y2="136"/>
<line x1="260" x2="244" y1="72" y2="104"/>
<line x1="260" x2="246" y1="136" y2="164"/>
<path d="M 40 8 A 8 8 0 0 0 34 12"/>
<path d="M 128 168 A 8 8 0 0 0 134 164"/>
<path d="M 152 8 A 8 8 0 0 0 146 12"/>
<path d="M 202 164 A 8 8 0 0 0 208 168"/>
<path d="M 240 168 A 8 8 0 0 0 246 164"/>
<path d="M 246 44 A 8 8 0 0 0 240 40"/>
</g>
<g>
<line x1="20" x2="34" y1="104" y2="132"/>
<path d="M 34 132 A 8 8 0 0 0 40 136"/>
</g>
<g>
<line x1="40" x2="72" y1="8" y2="8"/>
<path d="M 78 12 A 8 8 0 0 0 72 8"/>
</g>
<g>
<line x1="40" x2="76" y1="136" y2="136"/>
<line x1="76" x2="90" y1="136" y2="164"/>
<path d="M 90 164 A 8 8 0 0 0 96 168"/>
</g>
<g>
<line x1="78" x2="92" y1="12" y2="40"/>
</g>
<g>
<line x1="96" x2="128" y1="168" y2="168"/>
</g>
<g>
<line x1="152" x2="184" y1="8" y2="8"/>
<path d="M 190 12 A 8 8 0 0 0 184 8"/>
</g>
<g>
<line x1="190" x2="204" y1="12" y2="40"/>
</g>
<g>
<line x1="196" x2="196" y1="268" y2="296"/>
<line x1="196" x2="196" y1="296" y2="328"/>
<line x1="196" x2="228" y1="296" y2="296"/>
<line x1="196" x2="196" y1="328" y2="356"/>
<line x1="196" x2="228" y1="328" y2="328"/>
<line x1="228" x2="228" y1="264" y2="296"/>
<line x1="228" x2="260" y1="264" y2="264"/>
<line x1="228" x2="228" y1="296" y2="328"/>
<line x1="228" x2="260" y1="296" y2="296"/>
<line x1="228" x2="228" y1="328" y2="360"/>
<line x1="228" x2="260" y1="328" y2="328"/>
<line x1="228" x2="260" y1="360" y2="360"/>
<line x1="260" x2="260" y1="264" y2="296"/>
<line x1="260" x2="292" y1="264" y2="264"/>
<line x1="260" x2="260" y1="296" y2="328"/>
<line x1="260" x2="292" y1="296" y2="296"/>
<line x1="260" x2="260" y1="328" y2="360"/>
<line x1="260" x2="292" y1="328" y2="328"/>
<line x1="260" x2="292" y1="360" y2="360"/>
<line x1="292" x2="292" y1="264" y2="296"/>
<line x1="292" x2="324" y1="264" y2="264"/>
<line x1="292" x2="292" y1="296" y2="328"/>
<line x1="292" x2="324" y1="296" y2="296"/>
<line x1="292" x2="292" y1="328" y2="360"/>
<line x1="292" x2="324" y1="328" y2="328"/>
<line x1="292" x2="324" y1="360" y2="360"/>
<line x1="324" x2="324" y1="264" y2="296"/>
<line x1="324" x2="352" y1="264" y2="264"/>
<line x1="324" x2="324" y1="296" y2="328"/>
<line x1="324" x2="356" y1="296" y2="296"/>
<line x1="324" x2="324" y1="328" y2="360"/>
<line x1="324" x2="356" y1="328" y2="328"/>
<line x1="324" x2="352" y1="360" y2="360"/>
<line x1="356" x2="356" y1="268" y2="296"/>
<line x1="356" x2="356" y1="296" y2="328"/>
<line x1="356" x2="356" y1="328" y2="356"/>
<path d="M 196 356 A 4 4 0 0 0 200 360"/>
<path d="M 200 264 A 4 4 0 0 0 196 268"/>
<path d="M 352 360 A 4 4 0 0 0 356 356"/>
<path d="M 356 268 A 4 4 0 0 0 352 264"/>
</g>
<g>
<line x1="200" x2="228" y1="264" y2="264"/>
</g>
<g>
<line x1="200" x2="228" y1="360" y2="360"/>
</g>
<g>
<line x1="208" x2="240" y1="168" y2="168"/>
</g>
<g>
<line x1="246" x2="260" y1="44" y2="72"/>
</g>
<g>
<line x1="300" x2="300" y1="28" y2="72"/>
<line x1="300" x2="300" y1="72" y2="120"/>
<line x1="300" x2="348" y1="72" y2="72"/>
<line x1="300" x2="300" y1="120" y2="164"/>
<line x1="300" x2="348" y1="120" y2="120"/>
<line x1="348" x2="348" y1="24" y2="72"/>
<line x1="348" x2="396" y1="24" y2="24"/>
<line x1="348" x2="348" y1="72" y2="120"/>
<line x1="348" x2="396" y1="72" y2="72"/>
<line x1="348" x2="348" y1="120" y2="168"/>
<line x1="348" x2="396" y1="120" y2="120"/>
<line x1="348" x2="396" y1="168" y2="168"/>
<line x1="396" x2="396" y1="24" y2="72"/>
<line x1="396" x2="440" y1="24" y2="24"/>
<line x1="396" x2="396" y1="72" y2="120"/>
<line x1="396" x2="444" y1="72" y2="72"/>
<line x1="396" x2="396" y1="120" y2="168"/>
<line x1="396" x2="444" y1="120" y2="120"/>
<line x1="396" x2="440" y1="168" y2="168"/>
<line x1="444" x2="444" y1="28" y2="72"/>
<line x1="444" x2="444" y1="72" y2="120"/>
<line x1="444" x2="444" y1="120" y2="164"/>
<path d="M 300 164 A 4 4 0 0 0 304 168"/>
<path d="M 304 24 A 4 4 0 0 0 300 28"/>
<path d="M 440 168 A 4 4 0 0 0 444 164"/>
<path d="M 444 28 A 4 4 0 0 0 440 24"/>
</g>
<g>
<line x1="304" x2="348" y1="24" y2="24"/>
</g>
<g>
<line x1="304" x2="348" y1="168" y2="168"/>
</g>
<g>
<line x1="388" x2="404" y1="296" y2="328"/>
<line x1="388" x2="420" y1="296" y2="296"/>
<line x1="402" x2="388" y1="268" y2="296"/>
<line x1="404" x2="388" y1="264" y2="296"/>
<line x1="404" x2="420" y1="264" y2="296"/>
<line x1="404" x2="390" y1="328" y2="356"/>
<line x1="404" x2="420" y1="328" y2="360"/>
<line x1="404" x2="436" y1="328" y2="328"/>
<line x1="406" x2="420" y1="268" y2="296"/>
<line x1="420" x2="404" y1="296" y2="328"/>
<line x1="420" x2="436" y1="296" y2="328"/>
<line x1="420" x2="452" y1="296" y2="296"/>
<line x1="420" x2="452" y1="360" y2="360"/>
<line x1="436" x2="420" y1="264" y2="296"/>
<line x1="436" x2="452" y1="264" y2="296"/>
<line x1="436" x2="468" y1="264" y2="264"/>
<line x1="436" x2="420" y1="328" y2="360"/>
<line x1="436" x2="452" y1="328" y2="360"/>
<line x1="436" x2="468" y1="328" y2="328"/>
<line x1="452" x2="436" y1="296" y2="328"/>
<line x1="452" x2="468" y1="296" y2="328"/>
<line x1="452" x2="484" y1="296" y2="296"/>
<line x1="452" x2="484" y1="360" y2="360"/>
<line x1="468" x2="452" y1="264" y2="296"/>
<line x1="468" x2="484" y1="264" y2="296"/>
<line x1="468" x2="500" y1="264" y2="264"/>
<line x1="468" x2="452" y1="328" y2="360"/>
<line x1="468" x2="484" y1="328" y2="360"/>
<line x1="468" x2="500" y1="328" y2="328"/>
<line x1="484" x2="468" y1="296" y2="328"/>
<line x1="484" x2="500" y1="296" y2="328"/>
<line x1="484" x2="516" y1="296" y2="296"/>
<line x1="484" x2="512" y1="360" y2="360"/>
<line x1="500" x2="484" y1="264" y2="296"/>
<line x1="500" x2="516" y1="264" y2="296"/>
<line x1="500" x2="528" y1="264" y2="264"/>
<line x1="500" x2="484" y1="328" y2="360"/>
<line x1="500" x2="516" y1="328" y2="360"/>
<line x1="500" x2="532" y1="328" y2="328"/>
<line x1="516" x2="500" y1="296" y2="328"/>
<line x1="516" x2="530" y1="296" y2="268"/>
<line x1="516" x2="532" y1="296" y2="328"/>
<line x1="516" x2="520" y1="360" y2="352"/>
<line x1="532" x2="518" y1="328" y2="356"/>
<path d="M 390 356 A 4 4 0 0 0 392 360"/>
<path d="M 408 264 A 8 8 0 0 0 402 268"/>
<path d="M 408 264 A 8 8 0 0 0 406 268"/>
<path d="M 512 360 A 4 4 0 0 0 514 356"/>
<path d="M 512 360 A 8 8 0 0 0 518 356"/>
<path d="M 530 268 A 4 4 0 0 0 528 264"/>
</g>
<g>
<line x1="392" x2="420" y1="360" y2="360"/>
</g>
<g>
<line x1="408" x2="436" y1="264" y2="264"/>
</g>
<g>
<line x1="472" x2="516" y1="168" y2="168"/>
<line x1="516" x2="564" y1="168" y2="168"/>
<line x1="532" x2="516" y1="136" y2="168"/>
<line x1="532" x2="580" y1="136" y2="136"/>
<line x1="548" x2="532" y1="104" y2="136"/>
<line x1="548" x2="596" y1="104" y2="104"/>
<line x1="564" x2="548" y1="72" y2="104"/>
<line x1="564" x2="612" y1="72" y2="72"/>
<line x1="564" x2="612" y1="168" y2="168"/>
<line x1="580" x2="564" y1="40" y2="72"/>
<line x1="580" x2="628" y1="40" y2="40"/>
<line x1="580" x2="564" y1="136" y2="168"/>
<line x1="580" x2="628" y1="136" y2="136"/>
<line x1="596" x2="580" y1="104" y2="136"/>
<line x1="596" x2="644" y1="104" y2="104"/>
<line x1="612" x2="596" y1="72" y2="104"/>
<line x1="612" x2="660" y1="72" y2="72"/>
<line x1="612" x2="660" y1="168" y2="168"/>
<line x1="628" x2="612" y1="40" y2="72"/>
<line x1="628" x2="676" y1="40" y2="40"/>
<line x1="628" x2="612" y1="136" y2="168"/>
<line x1="628" x2="676" y1="136" y2="136"/>
<line x1="644" x2="628" y1="104" y2="136"/>
<line x1="644" x2="692" y1="104" y2="104"/>
<line x1="660" x2="644" y1="72" y2="104"/>
<line x1="660" x2="708" y1="72" y2="72"/>
<line x1="676" x2="660" y1="40" y2="72"/>
<line x1="676" x2="724" y1="40" y2="40"/>
<line x1="676" x2="660" y1="136" y2="168"/>
<line x1="692" x2="676" y1="104" y2="136"/>
<line x1="708" x2="692" y1="72" y2="104"/>
<line x1="724" x2="708" y1="40" y2="72"/>
<path d="M 470 164 A 4 4 0 0 0 472 168"/>
</g>
<g>
<line x1="484" x2="470" y1="136" y2="164"/>
<line x1="484" x2="532" y1="136" y2="136"/>
<line x1="500" x2="484" y1="104" y2="136"/>
<line x1="500" x2="548" y1="104" y2="104"/>
<line x1="516" x2="500" y1="72" y2="104"/>
<line x1="516" x2="564" y1="72" y2="72"/>
<line x1="530" x2="516" y1="44" y2="72"/>
<path d="M 536 40 A 8 8 0 0 0 530 44"/>
</g>
<g>
<line x1="514" x2="512" y1="356" y2="352"/>
</g>
<g>
<line x1="536" x2="580" y1="40" y2="40"/>
</g>
<g>
<line x1="556" x2="556" y1="268" y2="296"/>
<line x1="556" x2="556" y1="296" y2="328"/>
<line x1="556" x2="588" y1="296" y2="296"/>
<line x1="556" x2="556" y1="328" y2="356"/>
<line x1="556" x2="588" y1="328" y2="328"/>
<line x1="588" x2="588" y1="280" y2="296"/>
<line x1="588" x2="620" y1="280" y2="280"/>
<line x1="588" x2="588" y1="296" y2="312"/>
<line x1="588" x2="588" y1="312" y2="328"/>
<line x1="588" x2="620" y1="312" y2="312"/>
<line x1="588" x2="588" y1="328" y2="344"/>
<line x1="588" x2="588" y1="344" y2="356"/>
<line x1="588" x2="620" y1="344" y2="344"/>
<line x1="620" x2="620" y1="268" y2="280"/>
<line x1="620" x2="620" y1="280" y2="296"/>
<line x1="620" x2="620" y1="296" y2="312"/>
<line x1="620" x2="652" y1="296" y2="296"/>
<line x1="620" x2="620" y1="312" y2="328"/>
<line x1="620" x2="620" y1="328" y2="344"/>
<line x1="620" x2="652" y1="328" y2="328"/>
<line x1="620" x2="620" y1="344" y2="356"/>
<line x1="652" x2="652" y1="268" y2="296"/>
<line x1="652" x2="652" y1="296" y2="328"/>
<line x1="652" x2="652" y1="328" y2="356"/>
<path d="M 556 356 A 4 4 0 0 0 560 360"/>
<path d="M 560 264 A 4 4 0 0 0 556 268"/>
<path d="M 584 360 A 4 4 0 0 0 588 356"/>
<path d="M 620 356 A 4 4 0 0 0 624 360"/>
<path d="M 624 264 A 4 4 0 0 0 620 268"/>
<path d="M 648 360 A 4 4 0 0 0 652 356"/>
<path d="M 652 268 A 4 4 0 0 0 648 264"/>
</g>
<g>
<line x1="560" x2="584" y1="264" y2="264"/>
<path d="M 588 268 A 4 4 0 0 0 584 264"/>
</g>
<g>
<line x1="560" x2="584" y1="360" y2="360"/>
</g>
<g>
<line x1="588" x2="588" y1="268" y2="280"/>
</g>
<g>
<line x1="624" x2="648" y1="264" y2="264"/>
</g>
<g>
<line x1="624" x2="648" y1="360" y2="360"/>
</g>
</svg>
