<svg xmlns="http://www.w3.org/2000/svg" xmlns:xlink="http://www.w3.org/1999/xlink" contentStyleType="text/css" data-diagram-type="CLASS" height="218px" preserveAspectRatio="none" style="width:255px;height:218px;background:#FFFFFF;" version="1.1" viewBox="0 0 255 218" width="255px" zoomAndPan="magnify"><defs/><g><!--class Student--><g id="elem_Student"><rect codeLine="1" fill="#F1F1F1" height="64.2969" id="Student" rx="2.5" ry="2.5" style="stroke:#181818;stroke-width:0.5;" width="87.1113" x="7" y="7"/><ellipse cx="22" cy="23" fill="#ADD1B2" rx="11" ry="11" style="stroke:#181818;stroke-width:1;"/><path d="M24.9688,28.6406 Q24.3906,28.9375 23.75,29.0781 Q23.1094,29.2344 22.4063,29.2344 Q19.9063,29.2344 18.5781,27.5938 Q17.2656,25.9375 17.2656,22.8125 Q17.2656,19.6875 18.5781,18.0313 Q19.9063,16.375 22.4063,16.375 Q23.1094,16.375 23.75,16.5313 Q24.4063,16.6875 24.9688,16.9844 L24.9688,19.7031 Q24.3438,19.125 23.75,18.8594 Q23.1563,18.5781 22.5313,18.5781 Q21.1875,18.5781 20.5,19.6563 Q19.8125,20.7188 19.8125,22.8125 Q19.8125,24.9063 20.5,25.9844 Q21.1875,27.0469 22.5313,27.0469 Q23.1563,27.0469 23.75,26.7813 Q24.3438,26.5 24.9688,25.9219 L24.9688,28.6406 Z " fill="#000000"/><text fill="#000000" font-family="sans-serif" font-size="14" lengthAdjust="spacing" textLength="55.1113" x="36" y="27.8467">Student</text><line style="stroke:#181818;stroke-width:0.5;" x1="8" x2="93.1113" y1="39" y2="39"/><text fill="#000000" font-family="sans-serif" font-size="14" lengthAdjust="spacing" textLength="41.3027" x="13" y="55.9951">Name</text><line style="stroke:#181818;stroke-width:0.5;" x1="8" x2="93.1113" y1="63.2969" y2="63.2969"/></g><!--class Course--><g id="elem_Course"><rect fill="#F1F1F1" height="48" id="Course" rx="2.5" ry="2.5" style="stroke:#181818;stroke-width:0.5;" width="80.877" x="168.12" y="15.15"/><ellipse cx="183.12" cy="31.15" fill="#ADD1B2" rx="11" ry="11" style="stroke:#181818;stroke-width:1;"/><path d="M186.0888,36.7906 Q185.5106,37.0875 184.87,37.2281 Q184.2294,37.3844 183.5263,37.3844 Q181.0263,37.3844 179.6981,35.7437 Q178.3856,34.0875 178.3856,30.9625 Q178.3856,27.8375 179.6981,26.1812 Q181.0263,24.525 183.5263,24.525 Q184.2294,24.525 184.87,24.6812 Q185.5263,24.8375 186.0888,25.1344 L186.0888,27.8531 Q185.4638,27.275 184.87,27.0094 Q184.2763,26.7281 183.6513,26.7281 Q182.3075,26.7281 181.62,27.8062 Q180.9325,28.8687 180.9325,30.9625 Q180.9325,33.0562 181.62,34.1344 Q182.3075,35.1969 183.6513,35.1969 Q184.2763,35.1969 184.87,34.9312 Q185.4638,34.65 186.0888,34.0719 L186.0888,36.7906 Z " fill="#000000"/><text fill="#000000" font-family="sans-serif" font-size="14" lengthAdjust="spacing" textLength="48.877" x="197.12" y="35.9967">Course</text><line style="stroke:#181818;stroke-width:0.5;" x1="169.12" x2="247.997" y1="47.15" y2="47.15"/><line style="stroke:#181818;stroke-width:0.5;" x1="169.12" x2="247.997" y1="55.15" y2="55.15"/></g><!--class Enrollment--><g id="elem_Enrollment"><rect codeLine="7" fill="#F1F1F1" height="80.5938" id="Enrollment" rx="2.5" ry="2.5" style="stroke:#181818;stroke-width:0.5;" width="108.4326" x="77.34" y="131.3"/><ellipse cx="92.34" cy="147.3" fill="#ADD1B2" rx="11" ry="11" style="stroke:#181818;stroke-width:1;"/><path d="M95.3088,152.9406 Q94.7306,153.2375 94.09,153.3781 Q93.4494,153.5344 92.7463,153.5344 Q90.2463,153.5344 88.9181,151.8937 Q87.6056,150.2375 87.6056,147.1125 Q87.6056,143.9875 88.9181,142.3312 Q90.2463,140.675 92.7463,140.675 Q93.4494,140.675 94.09,140.8312 Q94.7463,140.9875 95.3088,141.2844 L95.3088,144.0031 Q94.6838,143.425 94.09,143.1594 Q93.4963,142.8781 92.8713,142.8781 Q91.5275,142.8781 90.84,143.9562 Q90.1525,145.0187 90.1525,147.1125 Q90.1525,149.2062 90.84,150.2844 Q91.5275,151.3469 92.8713,151.3469 Q93.4963,151.3469 94.09,151.0812 Q94.6838,150.8 95.3088,150.2219 L95.3088,152.9406 Z " fill="#000000"/><text fill="#000000" font-family="sans-serif" font-size="14" lengthAdjust="spacing" textLength="76.4326" x="106.34" y="152.1467">Enrollment</text><line style="stroke:#181818;stroke-width:0.5;" x1="78.34" x2="184.7726" y1="163.3" y2="163.3"/><line style="stroke:#181818;stroke-width:0.5;" x1="78.34" x2="184.7726" y1="171.3" y2="171.3"/><text fill="#000000" font-family="sans-serif" font-size="14" lengthAdjust="spacing" textLength="43.0186" x="83.34" y="188.2951">drop()</text><text fill="#000000" font-family="sans-serif" font-size="14" lengthAdjust="spacing" textLength="56.2734" x="83.34" y="204.592">cancel()</text></g><ellipse cx="131.56" cy="39.15" fill="#181818" rx="2" ry="2" style="stroke:#181818;stroke-width:1;"/><!--link Student to apoint6--><g id="link_Student_apoint6"><path d="M94.54,39.15 C106.1,39.15 117.67,39.15 129.24,39.15 " fill="transparent" id="Student-apoint6" style="stroke:#181818;stroke-width:1;"/><text fill="#000000" font-family="sans-serif" font-size="13" lengthAdjust="spacing" textLength="23.0356" x="98.5585" y="33.6108">0..*</text></g><!--link apoint6 to Course--><g id="link_apoint6_Course"><path d="M133.96,39.15 C145.23,39.15 156.5,39.15 167.76,39.15 " fill="transparent" id="apoint6-Course" style="stroke:#181818;stroke-width:1;"/><text fill="#000000" font-family="sans-serif" font-size="13" lengthAdjust="spacing" textLength="23.0356" x="141.6605" y="32.8339">1..*</text></g><!--link apoint6 to Enrollment--><g id="link_apoint6_Enrollment"><path d="M131.56,41.61 C131.56,50.35 131.56,96.33 131.56,130.92 " fill="transparent" id="apoint6-Enrollment" style="stroke:#181818;stroke-width:1;stroke-dasharray:7.0,7.0;"/></g><!--SRC=[Iyv9B2vM22ufJKdDAr6evb9Gy4lCJUMgvO89AHdewMafAUWgA1c26SxvfKN5gLmQK7aTg82cWfwUWcjUKNvEJYvGc8ih6MmmGWHiTafHVe669f2Hd9YNd9e3PDO20000]--></g></svg>