<?xml version="1.0" encoding="UTF-8" standalone="no"?><svg xmlns="http://www.w3.org/2000/svg" xmlns:xlink="http://www.w3.org/1999/xlink" contentScriptType="application/ecmascript" contentStyleType="text/css" height="213px" preserveAspectRatio="none" style="width:249px;height:213px;" version="1.1" viewBox="0 0 249 213" width="249px" zoomAndPan="magnify"><defs><filter height="300%" id="f12edgm6j4wpsg" width="300%" x="-1" y="-1"><feGaussianBlur result="blurOut" stdDeviation="2.0"/><feColorMatrix in="blurOut" result="blurOut2" type="matrix" values="0 0 0 0 0 0 0 0 0 0 0 0 0 0 0 0 0 0 .4 0"/><feOffset dx="4.0" dy="4.0" in="blurOut2" result="blurOut3"/><feBlend in="SourceGraphic" in2="blurOut3" mode="normal"/></filter></defs><g><!--class Student--><rect fill="#FEFECE" filter="url(#f12edgm6j4wpsg)" height="60.8047" id="Student" style="stroke: #A80036; stroke-width: 1.5;" width="82" x="6" y="8"/><ellipse cx="21" cy="24" fill="#ADD1B2" rx="11" ry="11" style="stroke: #A80036; stroke-width: 1.0;"/><path d="M23.9688,29.6406 Q23.3906,29.9375 22.75,30.0781 Q22.1094,30.2344 21.4063,30.2344 Q18.9063,30.2344 17.5781,28.5938 Q16.2656,26.9375 16.2656,23.8125 Q16.2656,20.6875 17.5781,19.0313 Q18.9063,17.375 21.4063,17.375 Q22.1094,17.375 22.75,17.5313 Q23.4063,17.6875 23.9688,17.9844 L23.9688,20.7031 Q23.3438,20.125 22.75,19.8594 Q22.1563,19.5781 21.5313,19.5781 Q20.1875,19.5781 19.5,20.6563 Q18.8125,21.7188 18.8125,23.8125 Q18.8125,25.9063 19.5,26.9844 Q20.1875,28.0469 21.5313,28.0469 Q22.1563,28.0469 22.75,27.7813 Q23.3438,27.5 23.9688,26.9219 L23.9688,29.6406 Z "/><text fill="#000000" font-family="sans-serif" font-size="12" lengthAdjust="spacingAndGlyphs" textLength="50" x="35" y="28.1543">Student</text><line style="stroke: #A80036; stroke-width: 1.5;" x1="7" x2="87" y1="40" y2="40"/><text fill="#000000" font-family="sans-serif" font-size="11" lengthAdjust="spacingAndGlyphs" textLength="33" x="12" y="54.2104">Name</text><line style="stroke: #A80036; stroke-width: 1.5;" x1="7" x2="87" y1="60.8047" y2="60.8047"/><!--class Course--><rect fill="#FEFECE" filter="url(#f12edgm6j4wpsg)" height="48" id="Course" style="stroke: #A80036; stroke-width: 1.5;" width="76" x="162" y="14.5"/><ellipse cx="177" cy="30.5" fill="#ADD1B2" rx="11" ry="11" style="stroke: #A80036; stroke-width: 1.0;"/><path d="M179.9688,36.1406 Q179.3906,36.4375 178.75,36.5781 Q178.1094,36.7344 177.4063,36.7344 Q174.9063,36.7344 173.5781,35.0938 Q172.2656,33.4375 172.2656,30.3125 Q172.2656,27.1875 173.5781,25.5313 Q174.9063,23.875 177.4063,23.875 Q178.1094,23.875 178.75,24.0313 Q179.4063,24.1875 179.9688,24.4844 L179.9688,27.2031 Q179.3438,26.625 178.75,26.3594 Q178.1563,26.0781 177.5313,26.0781 Q176.1875,26.0781 175.5,27.1563 Q174.8125,28.2188 174.8125,30.3125 Q174.8125,32.4063 175.5,33.4844 Q176.1875,34.5469 177.5313,34.5469 Q178.1563,34.5469 178.75,34.2813 Q179.3438,34 179.9688,33.4219 L179.9688,36.1406 Z "/><text fill="#000000" font-family="sans-serif" font-size="12" lengthAdjust="spacingAndGlyphs" textLength="44" x="191" y="34.6543">Course</text><line style="stroke: #A80036; stroke-width: 1.5;" x1="163" x2="237" y1="46.5" y2="46.5"/><line style="stroke: #A80036; stroke-width: 1.5;" x1="163" x2="237" y1="54.5" y2="54.5"/><!--class Enrollment--><rect fill="#FEFECE" filter="url(#f12edgm6j4wpsg)" height="73.6094" id="Enrollment" style="stroke: #A80036; stroke-width: 1.5;" width="99" x="75.5" y="129"/><ellipse cx="90.5" cy="145" fill="#ADD1B2" rx="11" ry="11" style="stroke: #A80036; stroke-width: 1.0;"/><path d="M93.4688,150.6406 Q92.8906,150.9375 92.25,151.0781 Q91.6094,151.2344 90.9063,151.2344 Q88.4063,151.2344 87.0781,149.5938 Q85.7656,147.9375 85.7656,144.8125 Q85.7656,141.6875 87.0781,140.0313 Q88.4063,138.375 90.9063,138.375 Q91.6094,138.375 92.25,138.5313 Q92.9063,138.6875 93.4688,138.9844 L93.4688,141.7031 Q92.8438,141.125 92.25,140.8594 Q91.6563,140.5781 91.0313,140.5781 Q89.6875,140.5781 89,141.6563 Q88.3125,142.7188 88.3125,144.8125 Q88.3125,146.9063 89,147.9844 Q89.6875,149.0469 91.0313,149.0469 Q91.6563,149.0469 92.25,148.7813 Q92.8438,148.5 93.4688,147.9219 L93.4688,150.6406 Z "/><text fill="#000000" font-family="sans-serif" font-size="12" lengthAdjust="spacingAndGlyphs" textLength="67" x="104.5" y="149.1543">Enrollment</text><line style="stroke: #A80036; stroke-width: 1.5;" x1="76.5" x2="173.5" y1="161" y2="161"/><line style="stroke: #A80036; stroke-width: 1.5;" x1="76.5" x2="173.5" y1="169" y2="169"/><text fill="#000000" font-family="sans-serif" font-size="11" lengthAdjust="spacingAndGlyphs" textLength="34" x="81.5" y="183.2104">drop()</text><text fill="#000000" font-family="sans-serif" font-size="11" lengthAdjust="spacingAndGlyphs" textLength="44" x="81.5" y="196.0151">cancel()</text><ellipse cx="125" cy="38.5" fill="#000000" rx="2" ry="2" style="stroke: none; stroke-width: 1.0;"/><!--link Student to apoint6--><path d="M88.1328,38.5 C99.7498,38.5 111.3668,38.5 122.9838,38.5 " fill="none" id="Student-apoint6" style="stroke: #A80036; stroke-width: 1.0;"/><text fill="#000000" font-family="sans-serif" font-size="13" lengthAdjust="spacingAndGlyphs" textLength="23" x="92.0052" y="32.6276">0..*</text><!--link apoint6 to Course--><path d="M127.0508,38.5 C138.6391,38.5 150.2274,38.5 161.8156,38.5 " fill="none" id="apoint6-Course" style="stroke: #A80036; stroke-width: 1.0;"/><text fill="#000000" font-family="sans-serif" font-size="13" lengthAdjust="spacingAndGlyphs" textLength="23" x="134.9202" y="32.3892">1..*</text><!--link apoint6 to Enrollment--><path d="M125,40.713 C125,51.0963 125,95.866 125,128.9397 " fill="none" id="apoint6-Enrollment" style="stroke: #A80036; stroke-width: 1.0; stroke-dasharray: 7.0,7.0;"/><!--
@startuml
class Student {
  Name
}
Student "0..*" - "1..*" Course
(Student, Course) .. Enrollment

class Enrollment {
  drop()
  cancel()
}
@enduml

PlantUML version 1.2019.08(Sat Jul 13 19:25:14 GMT 2019)
(GPL source distribution)
Java Runtime: OpenJDK Runtime Environment
JVM: OpenJDK 64-Bit Server VM
Java Version: 11.0.4+4-alpine-r1
Operating System: Linux
OS Version: 5.4.0-52-generic
Default Encoding: UTF-8
Language: en
Country: US
--></g></svg>